<svg width="241" height="54" viewBox="0 0 241 54" fill="none" xmlns="http://www.w3.org/2000/svg">
<g clip-path="url(#clip0_2503_12983)">
<path fill-rule="evenodd" clip-rule="evenodd" d="M24.4911 23.8257L4.7753 12.5874C3.41266 11.8096 1.67103 12.2721 0.883247 13.6175C0.0954679 14.9629 0.563877 16.6824 1.92652 17.4603L18.6658 27L1.92652 36.5397C0.563877 37.3175 0.0954679 39.0371 0.883247 40.3825C1.67103 41.7279 3.41266 42.1904 4.7753 41.4126L21.5145 31.8728V50.9565C21.5145 52.5121 22.792 53.7692 24.3633 53.7692C25.9346 53.7692 27.2121 52.5079 27.2121 50.9565V28.2108C27.2121 28.1562 27.2121 28.1015 27.2078 28.0427C27.2078 27.9796 27.2121 27.9123 27.2121 27.8493C27.2121 26.0876 26.0411 24.6539 24.4953 23.8257H24.4911Z" fill="#00C440"/>
<path fill-rule="evenodd" clip-rule="evenodd" d="M33.4291 25.0786L46.7958 17.4603C48.1584 16.6824 48.6269 14.9629 47.8391 13.6175C47.0513 12.2721 45.3097 11.8096 43.947 12.5874L30.5803 20.2057C29.2177 20.9835 28.7493 22.7031 29.5371 24.0485C30.3248 25.3939 32.0665 25.8564 33.4291 25.0786Z" fill="#00C440"/>
<path fill-rule="evenodd" clip-rule="evenodd" d="M24.3633 0.230767C22.7877 0.230767 21.5145 1.49208 21.5145 3.04349V16.0602C21.5145 16.0602 21.5145 16.0855 21.5145 16.0939C21.5145 17.3594 22.2555 18.4483 23.3328 18.9696V18.9823L24.3676 19.5288V19.5204C24.6614 19.7222 25.0191 19.8442 25.4066 19.8442C26.4073 19.8442 27.2206 19.0411 27.2206 18.0531C27.2206 18.0531 27.2206 18.0489 27.2206 18.0447V3.03929C27.2206 1.48367 25.9431 0.226562 24.3718 0.226562L24.3633 0.230767Z" fill="#F87198"/>
<path fill-rule="evenodd" clip-rule="evenodd" d="M46.8001 36.5398L33.6378 29.035C33.6378 29.035 33.6335 29.035 33.6293 29.035C32.7606 28.5389 31.6534 28.8332 31.1552 29.6909C30.9636 30.0189 30.8869 30.3846 30.921 30.7378H30.9125L30.8784 31.8856L30.8869 31.8982C30.806 33.0796 31.3937 34.2611 32.5008 34.8917C32.5093 34.8959 32.5221 34.9043 32.5306 34.9085L43.947 41.4169C45.3097 42.1947 47.0513 41.7322 47.8391 40.3868C48.6269 39.0414 48.1585 37.3218 46.7958 36.544L46.8001 36.5398Z" fill="#F87198"/>
<path fill-rule="evenodd" clip-rule="evenodd" d="M216.254 16.4975C216.786 16.4975 217.224 16.8338 217.429 17.3089L225.686 34.4838L234.496 17.2753L234.577 17.1197C234.79 16.7455 235.194 16.4975 235.646 16.4975H239.478C240.044 16.4975 240.504 16.9558 240.504 17.5149C240.504 17.7125 240.44 17.8681 240.355 18.0405L223.207 51.9782C222.96 52.4364 222.577 52.756 222.062 52.756H218.004C218.004 52.756 217.982 52.756 217.974 52.756C217.42 52.756 216.969 52.3103 216.969 51.7637C216.969 51.5872 217.029 51.4232 217.097 51.276L222.424 40.866L211.318 17.8765C211.254 17.7378 211.203 17.5906 211.203 17.4308C211.203 16.9137 211.629 16.4975 212.149 16.4975H216.258H216.254ZM201.486 8.98847C201.486 8.54701 201.865 8.15601 202.299 8.15601H206.204C206.634 8.15601 207.017 8.55963 207.017 8.98847V42.1357C207.017 42.573 206.651 42.9346 206.204 42.9346H204.249C202.721 42.9346 201.486 41.7111 201.486 40.2059V8.98847ZM182.579 43.6367C174.825 43.6367 168.233 37.3806 168.233 29.6782C168.233 21.9758 174.825 15.7197 182.579 15.7197C190.333 15.7197 196.985 21.9758 196.985 29.6782C196.985 37.3806 190.393 43.6367 182.579 43.6367ZM182.609 20.7901C177.635 20.7901 173.684 24.7675 173.684 29.6824C173.684 34.5973 177.635 38.5704 182.609 38.5704C187.583 38.5704 191.534 34.5931 191.534 29.6824C191.534 24.7717 187.583 20.7901 182.609 20.7901ZM163.732 42.1105C163.711 42.5352 163.353 42.9388 162.923 42.9388H159.112C158.682 42.9388 158.286 42.5057 158.286 42.0811V27.967C158.286 22.4887 154.377 20.7145 151.021 20.7145C147.968 20.7145 144.072 23.0479 144.072 28.0427V42.0811C144.05 42.5057 143.676 42.9388 143.246 42.9388H139.434C139.004 42.9388 138.625 42.5394 138.625 42.1105V17.2669C138.625 16.8254 138.987 16.4975 139.434 16.4975H141.057C143.041 16.4975 144.106 17.8975 144.157 19.3018C145.805 16.9053 148.841 15.7155 152.077 15.7155C157.634 15.7155 163.745 19.0958 163.745 28.0427V42.1063L163.732 42.1105ZM119.71 43.6367C111.956 43.6367 105.364 37.3806 105.364 29.6782C105.364 21.9758 111.956 15.7197 119.71 15.7197C127.464 15.7197 134.116 21.9758 134.116 29.6782C134.116 37.3806 127.524 43.6367 119.71 43.6367ZM119.74 20.7901C114.766 20.7901 110.815 24.7675 110.815 29.6824C110.815 34.5973 114.766 38.5704 119.74 38.5704C124.714 38.5704 128.665 34.5931 128.665 29.6824C128.665 24.7717 124.714 20.7901 119.74 20.7901ZM95.4125 21.2568L83.6426 33.9751L83.6043 34.0171L83.566 33.9751L71.7962 21.2568V42.1568C71.7749 42.5562 71.4385 42.9346 71.0297 42.9346H67.1121C66.7033 42.9346 66.3456 42.5562 66.3456 42.1568V11.9862C66.3541 11.5363 66.7331 11.1832 67.1887 11.1958H68.5599C69.254 11.1958 69.8714 11.5111 70.2802 12.003L83.6086 26.3021L96.9369 12.003C97.3415 11.5111 97.9632 11.1958 98.653 11.1958H100.067C100.522 11.2084 100.88 11.5784 100.867 12.0282V42.1526C100.867 42.552 100.505 42.9304 100.097 42.9304H96.179C95.7702 42.9304 95.4338 42.552 95.4125 42.1526V21.2526V21.2568Z" fill="black"/>
</g>
<defs>
<clipPath id="clip0_2503_12983">
<rect width="240" height="53.5385" fill="white" transform="translate(0.5 0.230713)"/>
</clipPath>
</defs>
</svg>
